<?xml version="1.0" encoding="UTF-8"?>
<svg width="480px" height="513px" viewBox="0 0 480 513" version="1.1" xmlns="http://www.w3.org/2000/svg" xmlns:xlink="http://www.w3.org/1999/xlink">
    <!-- Generator: Sketch 59 (86127) - https://sketch.com -->
    <title>box 2</title>
    <desc>Created with Sketch.</desc>
    <g id="Page-1" stroke="none" stroke-width="1" fill="none" fill-rule="evenodd">
        <g id="box" fill="#000000" fill-rule="nonzero">
            <path d="M475.729,112.971 L243.261,0.745 C241.2,-0.249 238.8,-0.249 236.74,0.745 L4.271,112.971 C1.679,114.222 0.032,116.847 0.032,119.725 L0.032,392.274 C0.032,395.152 1.679,397.777 4.271,399.028 L236.739,511.254 C237.769,511.751 238.885,512 240,512 C241.115,512 242.23,511.751 243.261,511.254 L475.729,399.028 C478.321,397.777 479.968,395.152 479.968,392.274 L479.968,119.726 C479.968,116.846 478.32,114.223 475.729,112.971 Z M240,15.828 L455.217,119.725 L392.83,149.843 C392.435,149.542 392.018,149.264 391.56,149.043 L177.805,45.853 L240,15.828 Z M160.867,54.333 L375.771,158.079 L331.756,179.328 L116.941,75.624 L160.867,54.333 Z M380.799,172.307 L380.799,250.853 L339.686,270.701 L339.686,192.155 L380.799,172.307 Z M247.5,492.55 L247.5,236.658 L339.489936,192.52 L331.736773,179.550258 L240,223.623 L219.204,213.583 C215.473,211.78 210.99,213.346 209.189,217.076 C207.388,220.806 208.952,225.29 212.682,227.091 L232.5,236.658 L232.5,492.55 L15.032,387.566 L15.032,131.674 L212.682,227.091 L219.204,213.583 L24.783,119.725 L99.288,83.757 L324.582,192.52 C324.615,192.566 324.652,192.607 324.686,192.652 L324.686,282.651 C324.686,285.232 326.013,287.631 328.199,289.004 C329.413,289.766 330.798,290.151 332.187,290.151 C333.299,290.151 334.414,289.904 335.447,289.405 L391.56,262.316 C394.152,261.065 395.799,258.441 395.799,255.562 L395.799,165.067 L464.968,131.675 L464.968,387.568 L247.5,492.55 Z" id="Shape"></path>
            <path d="M76.926,358.479 L42.811,342.01 C39.079,340.207 34.597,341.773 32.796,345.503 C30.995,349.233 32.559,353.717 36.289,355.518 L70.404,371.987 C71.455,372.495 72.566,372.735 73.659,372.735 C76.447,372.735 79.125,371.173 80.418,368.494 C82.22,364.763 80.656,360.281 76.926,358.479 Z" id="Path"></path>
            <path d="M108.323,338.042 L42.858,306.438 C39.127,304.637 34.644,306.201 32.843,309.932 C31.043,313.662 32.607,318.146 36.337,319.947 L101.802,351.551 C102.853,352.058 103.964,352.299 105.057,352.299 C107.845,352.299 110.523,350.737 111.816,348.058 C113.617,344.326 112.053,339.842 108.323,338.042 Z" id="Path"></path>
        </g>
    </g>
</svg>