<?xml version="1.0" encoding="UTF-8"?>
<svg width="600px" height="550px" viewBox="0 0 600 550" version="1.1" xmlns="http://www.w3.org/2000/svg" xmlns:xlink="http://www.w3.org/1999/xlink">
    <!-- Generator: Sketch 59 (86127) - https://sketch.com -->
    <title>gpu</title>
    <desc>Created with Sketch.</desc>
    <g id="Page-1" stroke="none" stroke-width="1" fill="none" fill-rule="evenodd">
        <g id="gpu" fill="#000000" fill-rule="nonzero">
            <path d="M570,60 L70,60 L70,10 C70,4.476562 65.523438,0 60,0 L0,0 L0,20 L50,20 L50,90 L20,90 C14.476562,90 10,94.476562 10,100 L10,180 C10,185.523438 14.476562,190 20,190 L50,190 L50,200 L20,200 C14.476562,200 10,204.476562 10,210 L10,290 C10,295.523438 14.476562,300 20,300 L50,300 L50,550 L70,550 L70,440 L570,440 C586.566406,440 600,426.566406 600,410 L600,90 C600,73.433594 586.566406,60 570,60 Z M30,170 L30,110 L50,110 L50,170 L30,170 Z M30,280 L30,220 L50,220 L50,280 L30,280 Z M580,410 C580,415.523438 575.523438,420 570,420 L70,420 L70,80 L570,80 C575.523438,80 580,84.476562 580,90 L580,410 Z" id="Shape"></path>
            <path d="M550,150 L310,150 C304.476562,150 300,154.476562 300,160 L300,340 C300,345.523438 304.476562,350 310,350 L550,350 C555.523438,350 560,345.523438 560,340 L560,160 C560,154.476562 555.523438,150 550,150 Z M540,330 L320,330 L320,170 L540,170 L540,330 Z" id="Shape"></path>
            <path d="M360,310 L390,310 L390,250 C390,244.476562 385.523438,240 380,240 L360,240 L360,260 L370,260 L370,290 L360,290 C354.476562,290 350,285.523438 350,280 L350,220 C350,214.476562 354.476562,210 360,210 L390,210 L390,190 L360,190 C343.433594,190 330,203.433594 330,220 L330,280 C330,296.566406 343.433594,310 360,310 Z" id="Path"></path>
            <path d="M500,310 C516.566406,310 530,296.566406 530,280 L530,190 L510,190 L510,280 C510,285.523438 505.523438,290 500,290 C494.476562,290 490,285.523438 490,280 L490,190 L470,190 L470,280 C470,296.566406 483.433594,310 500,310 Z" id="Path"></path>
            <path d="M420,260 L450,260 C455.523438,260 460,255.523438 460,250 L460,200 C460,194.476562 455.523438,190 450,190 L410,190 C404.476562,190 400,194.476562 400,200 L400,310 L420,310 L420,260 Z M420,210 L440,210 L440,240 L420,240 L420,210 Z" id="Shape"></path>
            <path d="M200,100 L100,100 C94.476562,100 90,104.476562 90,110 L90,170 C90,175.523438 94.476562,180 100,180 L200,180 C205.523438,180 210,175.523438 210,170 L210,110 C210,104.476562 205.523438,100 200,100 Z M190,160 L110,160 L110,120 L190,120 L190,160 Z" id="Shape"></path>
            <path d="M200,210 L100,210 C94.476562,210 90,214.476562 90,220 L90,280 C90,285.523438 94.476562,290 100,290 L200,290 C205.523438,290 210,285.523438 210,280 L210,220 C210,214.476562 205.523438,210 200,210 Z M190,270 L110,270 L110,230 L190,230 L190,270 Z" id="Shape"></path>
            <path d="M200,320 L100,320 C94.476562,320 90,324.476562 90,330 L90,390 C90,395.523438 94.476562,400 100,400 L200,400 C205.523438,400 210,395.523438 210,390 L210,330 C210,324.476562 205.523438,320 200,320 Z M190,380 L110,380 L110,340 L190,340 L190,380 Z" id="Shape"></path>
            <polygon id="Path" points="220 110 240 110 240 150 220 150"></polygon>
            <polygon id="Path" points="220 170 240 170 240 210 220 210"></polygon>
            <polygon id="Path" points="220 290 240 290 240 330 220 330"></polygon>
            <polygon id="Path" points="220 350 240 350 240 390 220 390"></polygon>
            <polygon id="Path" points="250 100 270 100 270 120 250 120"></polygon>
            <polygon id="Path" points="250 220 270 220 270 240 250 240"></polygon>
            <polygon id="Path" points="250 260 270 260 270 280 250 280"></polygon>
            <polygon id="Path" points="250 380 270 380 270 400 250 400"></polygon>
        </g>
    </g>
</svg>