<svg width="480" height="513" viewBox="0 0 480 513" xmlns="http://www.w3.org/2000/svg"><path d="M475.729 112.971L243.261.745a7.503 7.503 0 00-6.521 0L4.271 112.971a7.5 7.5 0 00-4.239 6.754v272.549a7.5 7.5 0 004.239 6.754l232.468 112.226a7.504 7.504 0 006.522 0l232.468-112.226a7.5 7.5 0 004.239-6.754V119.726a7.502 7.502 0 00-4.239-6.755zM240 15.828l215.217 103.897-62.387 30.118a7.434 7.434 0 00-1.27-.8L177.805 45.853 240 15.828zm-79.133 38.505l214.904 103.746-44.015 21.249L116.941 75.624l43.926-21.291zm219.932 117.974v78.546l-41.113 19.848v-78.546l41.113-19.848zM247.5 492.55V236.658l91.99-44.138-7.753-12.97L240 223.623l-20.796-10.04a7.498 7.498 0 00-10.015 3.493 7.5 7.5 0 003.493 10.015l19.818 9.567V492.55L15.032 387.566V131.674l197.65 95.417 6.522-13.508-194.421-93.858 74.505-35.968L324.582 192.52c.033.046.07.087.104.132v89.999a7.502 7.502 0 0010.761 6.754l56.113-27.089a7.499 7.499 0 004.239-6.754v-90.495l69.169-33.392v255.893L247.5 492.55z"/><path d="M76.926 358.479L42.811 342.01a7.5 7.5 0 00-6.522 13.508l34.115 16.469a7.463 7.463 0 003.255.748 7.5 7.5 0 006.759-4.241 7.499 7.499 0 00-3.492-10.015zm31.397-20.437l-65.465-31.604a7.501 7.501 0 00-6.521 13.509l65.465 31.604a7.477 7.477 0 003.255.748 7.5 7.5 0 003.266-14.257z"/></svg>