<svg width="600" height="550" viewBox="0 0 600 550" xmlns="http://www.w3.org/2000/svg"><path d="M570 60H70V10c0-5.523-4.477-10-10-10H0v20h50v70H20c-5.523 0-10 4.477-10 10v80c0 5.523 4.477 10 10 10h30v10H20c-5.523 0-10 4.477-10 10v80c0 5.523 4.477 10 10 10h30v250h20V440h500c16.566 0 30-13.434 30-30V90c0-16.566-13.434-30-30-30zM30 170v-60h20v60H30zm0 110v-60h20v60H30zm550 130c0 5.523-4.477 10-10 10H70V80h500c5.523 0 10 4.477 10 10v320z"/><path d="M550 150H310c-5.523 0-10 4.477-10 10v180c0 5.523 4.477 10 10 10h240c5.523 0 10-4.477 10-10V160c0-5.523-4.477-10-10-10zm-10 180H320V170h220v160z"/><path d="M360 310h30v-60c0-5.523-4.477-10-10-10h-20v20h10v30h-10c-5.523 0-10-4.477-10-10v-60c0-5.523 4.477-10 10-10h30v-20h-30c-16.566 0-30 13.434-30 30v60c0 16.566 13.434 30 30 30zm140 0c16.566 0 30-13.434 30-30v-90h-20v90c0 5.523-4.477 10-10 10s-10-4.477-10-10v-90h-20v90c0 16.566 13.434 30 30 30zm-80-50h30c5.523 0 10-4.477 10-10v-50c0-5.523-4.477-10-10-10h-40c-5.523 0-10 4.477-10 10v110h20v-50zm0-50h20v30h-20v-30zM200 100H100c-5.523 0-10 4.477-10 10v60c0 5.523 4.477 10 10 10h100c5.523 0 10-4.477 10-10v-60c0-5.523-4.477-10-10-10zm-10 60h-80v-40h80v40zm10 50H100c-5.523 0-10 4.477-10 10v60c0 5.523 4.477 10 10 10h100c5.523 0 10-4.477 10-10v-60c0-5.523-4.477-10-10-10zm-10 60h-80v-40h80v40zm10 50H100c-5.523 0-10 4.477-10 10v60c0 5.523 4.477 10 10 10h100c5.523 0 10-4.477 10-10v-60c0-5.523-4.477-10-10-10zm-10 60h-80v-40h80v40zm30-270h20v40h-20zm0 60h20v40h-20zm0 120h20v40h-20zm0 60h20v40h-20zm30-250h20v20h-20zm0 120h20v20h-20zm0 40h20v20h-20zm0 120h20v20h-20z"/></svg>